<?xml version="1.0" standalone="no"?>
<!DOCTYPE svg PUBLIC "-//W3C//DTD SVG 20010904//EN"
 "http://www.w3.org/TR/2001/REC-SVG-20010904/DTD/svg10.dtd">
<svg version="1.0" xmlns="http://www.w3.org/2000/svg"
 width="233.000000pt" height="210.000000pt" viewBox="0 0 233.000000 210.000000"
 preserveAspectRatio="xMidYMid meet">

<g transform="translate(0.000000,210.000000) scale(0.100000,-0.100000)"
fill="#000000" stroke="none">
<path d="M787 1820 c-115 -24 -137 -39 -137 -89 0 -79 -9 -99 -49 -106 -46 -9
-160 -62 -233 -108 -91 -59 -78 -63 18 -6 75 45 191 99 210 99 3 0 -23 -28
-57 -62 -61 -61 -170 -215 -185 -261 -8 -25 -7 -28 -44 103 -10 36 -19 55 -19
44 -1 -12 10 -59 23 -105 13 -45 22 -89 19 -96 -3 -8 -42 -51 -87 -96 -45 -45
-95 -103 -110 -129 -27 -47 -27 -48 -12 -100 8 -29 33 -89 54 -133 l38 -79
-27 -66 c-33 -79 -69 -212 -69 -256 0 -18 20 -72 46 -125 l47 -92 -23 -68
c-12 -38 -20 -74 -17 -81 5 -15 9 -7 29 62 l12 45 10 -57 c12 -74 31 -78 22
-5 -23 190 -28 281 -23 472 13 490 109 786 327 1005 96 97 170 149 281 197
141 61 216 76 389 76 185 1 268 -17 425 -92 286 -137 484 -384 646 -806 21
-55 39 -94 39 -86 0 25 -90 242 -144 347 -137 263 -299 436 -517 549 -130 67
-242 95 -439 107 -310 19 -349 18 -443 -2z m193 -24 c-111 -30 -202 -68 -267
-111 l-53 -35 0 27 c0 16 3 45 6 65 6 34 11 39 45 48 67 18 151 28 254 28
l100 1 -85 -23z m-685 -653 c-19 -44 -64 -247 -70 -316 -4 -42 -10 -77 -14
-77 -8 0 -45 81 -72 157 l-18 52 27 40 c34 49 134 161 146 161 4 0 5 -8 1 -17z
m-92 -757 l3 -189 -38 78 c-21 44 -38 86 -38 95 0 28 65 245 67 225 1 -11 4
-105 6 -209z"/>
<path d="M1613 1523 c12 -20 105 -36 155 -27 46 8 45 8 -38 15 -47 3 -94 10
-104 14 -13 6 -17 5 -13 -2z"/>
<path d="M637 1454 c-21 -25 -55 -53 -75 -64 -21 -10 -30 -19 -21 -20 23 0 78
39 112 82 43 54 30 55 -16 2z"/>
<path d="M1635 1441 c-76 -35 -135 -120 -135 -193 0 -84 97 -206 182 -228 126
-34 270 50 283 166 4 34 4 35 -4 9 -41 -154 -217 -223 -341 -134 -81 59 -122
157 -100 238 40 148 237 200 363 95 38 -31 77 -91 77 -119 0 -11 5 -27 11 -35
14 -22 0 58 -17 91 -17 35 -89 98 -130 115 -47 20 -141 17 -189 -5z"/>
<path d="M1693 1421 c-83 -21 -138 -98 -131 -185 15 -176 237 -242 329 -97 38
59 41 141 6 192 -47 70 -132 107 -204 90z m124 -53 c44 -41 22 -92 -40 -90
-37 1 -67 32 -67 68 0 45 68 59 107 22z m43 -133 c0 -8 -7 -15 -15 -15 -8 0
-15 7 -15 15 0 8 7 15 15 15 8 0 15 -7 15 -15z"/>
<path d="M784 1335 c137 -35 220 -136 200 -243 -21 -113 -104 -183 -219 -183
-64 0 -94 12 -145 57 -62 56 -83 104 -78 179 6 90 50 145 146 182 l37 14 -35
-6 c-74 -12 -149 -92 -164 -176 -14 -78 46 -186 130 -235 54 -32 147 -36 206
-10 75 32 138 126 138 204 0 50 -25 108 -65 147 -49 49 -98 74 -162 80 l-48 5
59 -15z"/>
<path d="M684 1291 c-127 -59 -137 -220 -21 -314 81 -66 203 -40 256 53 31 56
33 134 2 183 -51 82 -155 117 -237 78z m126 -36 c14 -9 13 -58 -2 -73 -7 -7
-26 -12 -43 -12 -69 0 -102 65 -48 93 25 14 63 10 93 -8z m60 -114 c0 -14 -18
-23 -30 -16 -6 4 -8 11 -5 16 8 12 35 12 35 0z"/>
<path d="M1249 1077 c-50 -33 -73 -87 -73 -173 -1 -40 2 -76 7 -80 4 -4 24 -2
45 5 20 7 92 15 160 18 l122 6 0 26 c-1 64 -70 170 -130 201 -51 26 -89 25
-131 -3z"/>
<path d="M2082 711 c-12 -22 -39 -53 -58 -71 -33 -28 -38 -30 -52 -17 -8 8
-21 39 -28 69 l-14 53 4 -47 c7 -92 53 -123 102 -70 30 32 78 111 72 117 -2 3
-14 -13 -26 -34z"/>
<path d="M717 600 c4 -19 7 -51 8 -70 0 -49 -28 -50 -123 -6 -42 20 -68 29
-57 20 28 -23 137 -74 156 -74 30 0 42 27 36 80 -3 28 -11 58 -17 68 -8 13 -9
9 -3 -18z"/>
<path d="M1300 614 c-93 -25 -162 -64 -231 -133 -69 -70 -108 -138 -134 -236
-19 -75 -31 -230 -18 -238 6 -4 12 34 16 101 6 130 32 217 88 301 122 182 382
258 587 170 112 -48 208 -152 277 -301 34 -75 75 -213 75 -255 0 -13 5 -23 10
-23 13 0 13 2 -9 95 -24 97 -68 206 -116 285 -42 69 -143 166 -206 197 -104
52 -232 66 -339 37z"/>
<path d="M1475 460 c-27 -5 -101 -9 -164 -9 -63 -1 -112 -4 -109 -7 12 -11
254 -3 318 10 69 15 38 19 -45 6z"/>
<path d="M1168 453 c7 -3 16 -2 19 1 4 3 -2 6 -13 5 -11 0 -14 -3 -6 -6z"/>
<path d="M1080 250 c14 -4 36 -8 50 -8 22 0 22 1 -5 8 -16 4 -39 8 -50 8 -16
0 -15 -2 5 -8z"/>
<path d="M1605 247 c-18 -6 -116 -11 -240 -11 -115 -1 -190 -4 -165 -8 118
-18 442 1 468 26 9 10 -31 5 -63 -7z"/>
<path d="M1700 84 l-65 -13 56 5 c32 3 70 9 85 14 44 13 -1 10 -76 -6z"/>
<path d="M1305 60 l-230 -6 225 -1 c124 0 250 2 280 7 l55 7 -50 -1 c-27 0
-153 -3 -280 -6z"/>
<path d="M955 20 c-3 -5 -1 -10 4 -10 6 0 11 5 11 10 0 6 -2 10 -4 10 -3 0 -8
-4 -11 -10z"/>
</g>
</svg>
